<?xml version="1.0" encoding="UTF-8"?>
<svg xmlns="http://www.w3.org/2000/svg" xmlns:xlink="http://www.w3.org/1999/xlink" width="854" height="480" viewBox="0 0 854 480">
<defs>
<g>
<g id="glyph-0-0">
<path d="M 0.109375 -0.398438 C 0.109375 -0.484375 0.136719 -0.554688 0.191406 -0.613281 C 0.246094 -0.671875 0.324219 -0.699219 0.417969 -0.699219 C 0.539062 -0.699219 0.699219 -0.628906 0.902344 -0.480469 C 1.105469 -0.335938 1.265625 -0.265625 1.375 -0.265625 C 1.507812 -0.265625 1.621094 -0.308594 1.71875 -0.402344 C 1.816406 -0.496094 1.863281 -0.621094 1.863281 -0.777344 C 1.863281 -0.9375 1.808594 -1.078125 1.699219 -1.1875 C 1.589844 -1.300781 1.46875 -1.386719 1.332031 -1.449219 C 1.183594 -1.515625 1.019531 -1.566406 0.832031 -1.597656 C 0.710938 -1.617188 0.519531 -1.636719 0.253906 -1.652344 L 0.738281 -3.378906 L 2.347656 -3.378906 L 2.132812 -2.742188 L 0.746094 -2.742188 L 0.632812 -2.335938 C 1.023438 -2.324219 1.335938 -2.269531 1.578125 -2.167969 C 2.03125 -1.980469 2.257812 -1.644531 2.257812 -1.164062 C 2.257812 -0.8125 2.121094 -0.519531 1.851562 -0.292969 C 1.582031 -0.0664062 1.242188 0.046875 0.832031 0.046875 C 0.625 0.046875 0.453125 0.00390625 0.316406 -0.0742188 C 0.179688 -0.15625 0.109375 -0.265625 0.109375 -0.398438 Z "/>
</g>
</g>
</defs>
<g fill="rgb(17.647059%, 12.54902%, 7.45098%)" fill-opacity="1">
<use xlink:href="#glyph-0-0" x="30" y="23.75"/>
</g>
</svg>
