<?xml version="1.0" encoding="UTF-8"?>
<svg xmlns="http://www.w3.org/2000/svg" xmlns:xlink="http://www.w3.org/1999/xlink" width="854" height="480" viewBox="0 0 854 480">
<defs>
<g>
<g id="glyph-0-0">
<path d="M 0.40625 -0.667969 C 0.558594 -0.667969 0.710938 -0.585938 0.871094 -0.421875 C 1.03125 -0.257812 1.164062 -0.179688 1.269531 -0.179688 C 1.449219 -0.179688 1.578125 -0.238281 1.652344 -0.359375 C 1.730469 -0.480469 1.769531 -0.621094 1.769531 -0.773438 C 1.769531 -1.058594 1.648438 -1.292969 1.410156 -1.472656 C 1.273438 -1.574219 1.058594 -1.675781 0.761719 -1.78125 L 0.761719 -1.863281 C 0.964844 -1.933594 1.109375 -2 1.195312 -2.066406 C 1.34375 -2.179688 1.414062 -2.328125 1.414062 -2.523438 C 1.414062 -2.6875 1.367188 -2.816406 1.265625 -2.902344 C 1.164062 -2.988281 1.039062 -3.03125 0.882812 -3.03125 C 0.742188 -3.03125 0.609375 -2.980469 0.496094 -2.875 C 0.429688 -2.816406 0.359375 -2.730469 0.289062 -2.613281 L 0.183594 -2.671875 C 0.261719 -2.839844 0.371094 -2.988281 0.515625 -3.117188 C 0.75 -3.324219 1.019531 -3.429688 1.328125 -3.429688 C 1.542969 -3.429688 1.726562 -3.371094 1.882812 -3.25 C 2.042969 -3.128906 2.128906 -2.972656 2.144531 -2.777344 C 2.144531 -2.640625 2.117188 -2.515625 2.054688 -2.410156 C 1.992188 -2.300781 1.894531 -2.210938 1.757812 -2.140625 L 1.757812 -2.105469 C 1.957031 -2.023438 2.105469 -1.90625 2.195312 -1.746094 C 2.289062 -1.585938 2.335938 -1.414062 2.335938 -1.238281 C 2.335938 -0.878906 2.199219 -0.574219 1.921875 -0.320312 C 1.632812 -0.0546875 1.269531 0.0742188 0.828125 0.0742188 C 0.613281 0.0742188 0.433594 0.0351562 0.289062 -0.046875 C 0.148438 -0.128906 0.0742188 -0.234375 0.0742188 -0.367188 C 0.0742188 -0.441406 0.101562 -0.507812 0.152344 -0.574219 C 0.203125 -0.636719 0.289062 -0.667969 0.40625 -0.667969 Z "/>
</g>
</g>
</defs>
<g fill="rgb(17.647059%, 12.54902%, 7.45098%)" fill-opacity="1">
<use xlink:href="#glyph-0-0" x="30" y="23.75"/>
</g>
</svg>
