<?xml version="1.0" encoding="UTF-8"?>
<svg xmlns="http://www.w3.org/2000/svg" xmlns:xlink="http://www.w3.org/1999/xlink" width="854" height="480" viewBox="0 0 854 480">
<defs>
<g>
<g id="glyph-0-0">
<path d="M 3.9375 -1.476562 L 3.9375 -0.742188 L 0.171875 -0.742188 L 0.171875 -1.476562 Z M 3.9375 -3.027344 L 3.9375 -2.28125 L 0.171875 -2.28125 L 0.171875 -3.027344 Z "/>
</g>
<g id="glyph-0-1">
<rect x="0" y="0" width="0" height="0" mask="url(#mask-0)"/>
</g>
<g id="glyph-0-2">
<path d="M 1.300781 -1.605469 C 1.304688 -1.015625 1.347656 -0.621094 1.433594 -0.414062 C 1.515625 -0.207031 1.640625 -0.105469 1.804688 -0.105469 C 2.015625 -0.105469 2.15625 -0.296875 2.230469 -0.675781 C 2.269531 -0.886719 2.289062 -1.195312 2.289062 -1.605469 L 2.289062 -3.257812 C 2.289062 -3.84375 2.246094 -4.238281 2.164062 -4.445312 C 2.082031 -4.652344 1.957031 -4.753906 1.796875 -4.753906 C 1.636719 -4.753906 1.511719 -4.648438 1.429688 -4.441406 C 1.34375 -4.234375 1.300781 -3.839844 1.300781 -3.257812 Z M 0.164062 -2.398438 C 0.164062 -3.261719 0.359375 -3.929688 0.742188 -4.402344 C 1.050781 -4.777344 1.398438 -4.964844 1.796875 -4.964844 C 2.25 -4.964844 2.636719 -4.734375 2.949219 -4.269531 C 3.265625 -3.796875 3.425781 -3.199219 3.425781 -2.480469 C 3.425781 -1.632812 3.246094 -0.96875 2.886719 -0.496094 C 2.582031 -0.0976562 2.21875 0.0976562 1.796875 0.0976562 C 1.5 0.0976562 1.25 0.0117188 1.039062 -0.164062 C 0.832031 -0.335938 0.652344 -0.5625 0.503906 -0.835938 C 0.378906 -1.070312 0.289062 -1.335938 0.234375 -1.636719 C 0.207031 -1.8125 0.183594 -2.066406 0.164062 -2.398438 Z "/>
</g>
<g id="glyph-0-3">
<path d="M 0.574219 -0.507812 C 0.574219 -0.675781 0.632812 -0.820312 0.753906 -0.941406 C 0.871094 -1.058594 1.015625 -1.117188 1.183594 -1.117188 C 1.355469 -1.117188 1.5 -1.058594 1.617188 -0.941406 C 1.734375 -0.820312 1.796875 -0.675781 1.796875 -0.507812 C 1.796875 -0.339844 1.734375 -0.195312 1.617188 -0.0742188 C 1.5 0.0429688 1.355469 0.101562 1.183594 0.101562 C 1.015625 0.101562 0.871094 0.0429688 0.753906 -0.0742188 C 0.632812 -0.195312 0.574219 -0.339844 0.574219 -0.507812 Z "/>
</g>
<g id="glyph-0-4">
<path d="M 1.9375 -1.835938 L 1.9375 -3.894531 L 1.886719 -3.894531 L 0.476562 -1.90625 L 0.476562 -1.835938 Z M 0.128906 -1.855469 C 0.148438 -1.894531 0.167969 -1.929688 0.191406 -1.960938 C 0.210938 -1.992188 0.277344 -2.085938 0.382812 -2.238281 L 1.136719 -3.308594 L 2.105469 -4.589844 L 2.398438 -4.964844 L 2.972656 -4.964844 L 2.972656 -1.835938 L 3.425781 -1.835938 L 3.425781 -1.035156 L 2.972656 -1.035156 L 2.972656 0 L 1.929688 0 L 1.929688 -1.035156 L 0.128906 -1.035156 Z "/>
</g>
</g>
<image id="source-21" x="0" y="0" width="0" height="0"/>
<mask id="mask-0">
<use xlink:href="#source-21"/>
</mask>
</defs>
<g fill="rgb(30.980392%, 76.470588%, 96.862745%)" fill-opacity="1">
<use xlink:href="#glyph-0-0" x="30" y="25.416992"/>
<use xlink:href="#glyph-0-1" x="34" y="25.416992"/>
<use xlink:href="#glyph-0-2" x="36" y="25.416992"/>
<use xlink:href="#glyph-0-3" x="40" y="25.416992"/>
<use xlink:href="#glyph-0-4" x="42" y="25.416992"/>
<use xlink:href="#glyph-0-2" x="46" y="25.416992"/>
<use xlink:href="#glyph-0-2" x="50" y="25.416992"/>
</g>
</svg>
