<?xml version="1.0" encoding="UTF-8"?>
<svg xmlns="http://www.w3.org/2000/svg" xmlns:xlink="http://www.w3.org/1999/xlink" width="1280" height="720" viewBox="0 0 1280 720">
<defs>
<g>
<g id="glyph-0-0">
<path d="M 0.0742188 -0.140625 C 0.214844 -0.148438 0.316406 -0.171875 0.378906 -0.199219 C 0.484375 -0.257812 0.539062 -0.359375 0.539062 -0.507812 L 0.539062 -3.246094 C 0.539062 -3.390625 0.488281 -3.488281 0.386719 -3.546875 C 0.324219 -3.578125 0.222656 -3.601562 0.0742188 -3.613281 L 0.0742188 -3.753906 L 1.773438 -3.753906 C 2.460938 -3.753906 2.980469 -3.570312 3.34375 -3.207031 C 3.671875 -2.875 3.832031 -2.425781 3.832031 -1.867188 C 3.832031 -1.363281 3.667969 -0.9375 3.339844 -0.589844 C 2.96875 -0.195312 2.464844 0 1.832031 0 L 0.0742188 0 Z M 1.4375 -0.511719 C 1.441406 -0.398438 1.464844 -0.316406 1.5 -0.265625 C 1.539062 -0.214844 1.617188 -0.191406 1.738281 -0.191406 C 2.066406 -0.191406 2.339844 -0.304688 2.550781 -0.539062 C 2.761719 -0.769531 2.867188 -1.21875 2.867188 -1.878906 C 2.867188 -2.269531 2.808594 -2.605469 2.695312 -2.890625 C 2.511719 -3.34375 2.199219 -3.570312 1.761719 -3.570312 C 1.617188 -3.570312 1.523438 -3.539062 1.480469 -3.476562 C 1.453125 -3.4375 1.4375 -3.359375 1.4375 -3.246094 Z "/>
</g>
<g id="glyph-0-1">
<rect x="0" y="0" width="0" height="0" mask="url(#mask-0)"/>
</g>
<g id="glyph-0-2">
<path d="M 0.332031 -3.40625 C 0.332031 -3.527344 0.375 -3.628906 0.460938 -3.710938 C 0.542969 -3.796875 0.644531 -3.839844 0.765625 -3.839844 C 0.882812 -3.839844 0.984375 -3.796875 1.066406 -3.710938 C 1.152344 -3.628906 1.195312 -3.527344 1.195312 -3.40625 C 1.195312 -3.289062 1.152344 -3.1875 1.066406 -3.101562 C 0.984375 -3.019531 0.882812 -2.976562 0.765625 -2.976562 C 0.644531 -2.976562 0.542969 -3.019531 0.460938 -3.101562 C 0.375 -3.1875 0.332031 -3.289062 0.332031 -3.40625 Z M 0.0898438 -0.132812 C 0.1875 -0.148438 0.253906 -0.171875 0.289062 -0.207031 C 0.34375 -0.253906 0.371094 -0.34375 0.371094 -0.46875 L 0.371094 -2.101562 C 0.371094 -2.214844 0.351562 -2.289062 0.316406 -2.332031 C 0.277344 -2.371094 0.203125 -2.402344 0.0898438 -2.421875 L 0.0898438 -2.558594 L 1.15625 -2.558594 L 1.15625 -0.449219 C 1.15625 -0.328125 1.171875 -0.25 1.210938 -0.214844 C 1.246094 -0.179688 1.3125 -0.152344 1.414062 -0.132812 L 1.414062 0 L 0.0898438 0 Z "/>
</g>
<g id="glyph-0-3">
<path d="M 1.476562 -2.558594 L 1.476562 -2.421875 C 1.378906 -2.417969 1.308594 -2.40625 1.257812 -2.390625 C 1.207031 -2.371094 1.183594 -2.332031 1.183594 -2.273438 C 1.183594 -2.257812 1.191406 -2.230469 1.203125 -2.191406 C 1.214844 -2.152344 1.226562 -2.125 1.234375 -2.109375 L 1.652344 -1.042969 L 1.695312 -1.042969 L 2.070312 -1.992188 C 2.089844 -2.035156 2.101562 -2.082031 2.113281 -2.128906 C 2.125 -2.175781 2.132812 -2.214844 2.132812 -2.242188 C 2.132812 -2.320312 2.105469 -2.367188 2.054688 -2.386719 C 2 -2.410156 1.925781 -2.421875 1.824219 -2.421875 L 1.824219 -2.558594 L 2.667969 -2.558594 L 2.667969 -2.421875 C 2.59375 -2.417969 2.53125 -2.394531 2.484375 -2.351562 C 2.4375 -2.308594 2.390625 -2.230469 2.347656 -2.121094 L 1.453125 0.078125 L 1.308594 0.078125 L 0.644531 -1.566406 C 0.597656 -1.683594 0.550781 -1.792969 0.507812 -1.894531 C 0.460938 -1.996094 0.414062 -2.09375 0.367188 -2.1875 C 0.316406 -2.285156 0.277344 -2.347656 0.246094 -2.375 C 0.21875 -2.398438 0.164062 -2.414062 0.0898438 -2.421875 L 0.0898438 -2.558594 Z "/>
</g>
<g id="glyph-0-4">
<path d="M 1.398438 -0.234375 C 1.519531 -0.234375 1.625 -0.289062 1.722656 -0.394531 C 1.816406 -0.503906 1.863281 -0.578125 1.863281 -0.621094 L 1.863281 -1.972656 C 1.863281 -2.015625 1.824219 -2.085938 1.742188 -2.171875 C 1.660156 -2.261719 1.550781 -2.304688 1.417969 -2.304688 C 1.222656 -2.304688 1.085938 -2.167969 1.015625 -1.894531 C 0.980469 -1.75 0.960938 -1.542969 0.960938 -1.273438 C 0.960938 -0.988281 0.976562 -0.773438 1.015625 -0.628906 C 1.082031 -0.367188 1.210938 -0.234375 1.398438 -0.234375 Z M 0.140625 -1.203125 C 0.140625 -1.640625 0.246094 -1.988281 0.453125 -2.242188 C 0.664062 -2.496094 0.914062 -2.625 1.207031 -2.625 C 1.355469 -2.625 1.484375 -2.585938 1.597656 -2.515625 C 1.667969 -2.472656 1.757812 -2.394531 1.863281 -2.28125 L 1.863281 -3.296875 C 1.863281 -3.4375 1.835938 -3.523438 1.78125 -3.558594 C 1.726562 -3.589844 1.617188 -3.613281 1.445312 -3.617188 L 1.445312 -3.753906 L 2.640625 -3.753906 L 2.640625 -0.558594 C 2.640625 -0.441406 2.664062 -0.363281 2.707031 -0.320312 C 2.75 -0.273438 2.835938 -0.246094 2.960938 -0.234375 L 2.960938 -0.109375 C 2.652344 -0.078125 2.449219 -0.0546875 2.359375 -0.0390625 C 2.269531 -0.0234375 2.109375 0.015625 1.882812 0.078125 L 1.882812 -0.289062 C 1.777344 -0.179688 1.683594 -0.0976562 1.59375 -0.046875 C 1.457031 0.0351562 1.308594 0.078125 1.148438 0.078125 C 0.878906 0.078125 0.644531 -0.0351562 0.441406 -0.265625 C 0.242188 -0.496094 0.140625 -0.808594 0.140625 -1.203125 Z "/>
</g>
<g id="glyph-0-5">
<path d="M 0.125 -1.273438 C 0.125 -1.703125 0.238281 -2.03125 0.464844 -2.269531 C 0.691406 -2.503906 0.964844 -2.625 1.285156 -2.625 C 1.46875 -2.625 1.640625 -2.574219 1.800781 -2.480469 C 1.960938 -2.382812 2.085938 -2.25 2.171875 -2.082031 C 2.238281 -1.953125 2.285156 -1.785156 2.308594 -1.582031 C 2.320312 -1.484375 2.328125 -1.414062 2.328125 -1.363281 L 0.910156 -1.363281 C 0.921875 -1.140625 0.960938 -0.945312 1.019531 -0.785156 C 1.128906 -0.480469 1.320312 -0.324219 1.59375 -0.324219 C 1.722656 -0.324219 1.84375 -0.367188 1.960938 -0.449219 C 2.03125 -0.496094 2.121094 -0.578125 2.222656 -0.695312 L 2.351562 -0.617188 C 2.179688 -0.335938 1.980469 -0.136719 1.753906 -0.0273438 C 1.609375 0.0429688 1.441406 0.078125 1.25 0.078125 C 0.976562 0.078125 0.722656 -0.0273438 0.484375 -0.246094 C 0.246094 -0.460938 0.125 -0.804688 0.125 -1.273438 Z M 1.644531 -1.566406 C 1.640625 -1.894531 1.613281 -2.125 1.566406 -2.253906 C 1.519531 -2.382812 1.425781 -2.449219 1.285156 -2.449219 C 1.140625 -2.449219 1.042969 -2.375 0.988281 -2.222656 C 0.933594 -2.074219 0.90625 -1.855469 0.898438 -1.566406 Z "/>
</g>
</g>
<image id="source-30" x="0" y="0" width="0" height="0"/>
<mask id="mask-0">
<use xlink:href="#source-30"/>
</mask>
</defs>
<g fill="rgb(17.647059%, 12.54902%, 7.45098%)" fill-opacity="1">
<use xlink:href="#glyph-0-0" x="30" y="24.166992"/>
<use xlink:href="#glyph-0-1" x="34" y="24.166992"/>
<use xlink:href="#glyph-0-1" x="35" y="24.166992"/>
<use xlink:href="#glyph-0-0" x="36" y="24.166992"/>
<use xlink:href="#glyph-0-2" x="40" y="24.166992"/>
<use xlink:href="#glyph-0-3" x="42" y="24.166992"/>
<use xlink:href="#glyph-0-2" x="45" y="24.166992"/>
<use xlink:href="#glyph-0-4" x="47" y="24.166992"/>
<use xlink:href="#glyph-0-5" x="50" y="24.166992"/>
</g>
</svg>
