<?xml version="1.0" encoding="UTF-8"?>
<svg xmlns="http://www.w3.org/2000/svg" xmlns:xlink="http://www.w3.org/1999/xlink" width="854" height="480" viewBox="0 0 854 480">
<defs>
<g>
<g id="glyph-0-0">
<path d="M 2.382812 -2.261719 L 2.382812 -4.792969 L 2.320312 -4.792969 L 0.585938 -2.34375 L 0.585938 -2.261719 Z M 0.160156 -2.28125 C 0.183594 -2.332031 0.207031 -2.375 0.234375 -2.414062 C 0.261719 -2.453125 0.339844 -2.566406 0.472656 -2.757812 L 1.398438 -4.070312 L 2.589844 -5.648438 L 2.953125 -6.113281 L 3.660156 -6.113281 L 3.660156 -2.261719 L 4.214844 -2.261719 L 4.214844 -1.273438 L 3.660156 -1.273438 L 3.660156 0 L 2.375 0 L 2.375 -1.273438 L 0.160156 -1.273438 Z "/>
</g>
<g id="glyph-0-1">
<rect x="0" y="0" width="0" height="0" mask="url(#mask-0)"/>
</g>
<g id="glyph-0-2">
<path d="M 2.292969 -4.207031 C 2.664062 -4.207031 2.988281 -4.113281 3.261719 -3.933594 C 3.535156 -3.75 3.671875 -3.515625 3.671875 -3.230469 C 3.671875 -3.078125 3.617188 -2.941406 3.507812 -2.832031 C 3.398438 -2.71875 3.261719 -2.660156 3.09375 -2.660156 C 2.980469 -2.660156 2.882812 -2.6875 2.800781 -2.738281 C 2.640625 -2.832031 2.5625 -3 2.5625 -3.242188 C 2.5625 -3.269531 2.5625 -3.308594 2.566406 -3.359375 C 2.570312 -3.410156 2.570312 -3.460938 2.570312 -3.519531 C 2.570312 -3.675781 2.535156 -3.785156 2.460938 -3.839844 C 2.386719 -3.898438 2.300781 -3.929688 2.203125 -3.929688 C 1.929688 -3.929688 1.734375 -3.777344 1.617188 -3.476562 C 1.503906 -3.171875 1.445312 -2.824219 1.445312 -2.433594 C 1.445312 -1.878906 1.554688 -1.414062 1.773438 -1.039062 C 1.996094 -0.660156 2.292969 -0.472656 2.664062 -0.472656 C 2.898438 -0.472656 3.097656 -0.523438 3.265625 -0.628906 C 3.363281 -0.691406 3.484375 -0.800781 3.628906 -0.964844 L 3.792969 -0.8125 C 3.503906 -0.410156 3.164062 -0.132812 2.777344 0.015625 C 2.574219 0.09375 2.355469 0.132812 2.121094 0.132812 C 1.550781 0.132812 1.085938 -0.0703125 0.726562 -0.476562 C 0.363281 -0.886719 0.183594 -1.382812 0.183594 -1.96875 C 0.183594 -2.589844 0.375 -3.117188 0.757812 -3.554688 C 1.140625 -3.988281 1.652344 -4.207031 2.292969 -4.207031 Z "/>
</g>
<g id="glyph-0-3">
<path d="M 0.144531 -0.210938 C 0.304688 -0.230469 0.417969 -0.269531 0.476562 -0.316406 C 0.574219 -0.394531 0.625 -0.539062 0.625 -0.75 L 0.625 -3.363281 C 0.625 -3.550781 0.589844 -3.675781 0.523438 -3.742188 C 0.457031 -3.808594 0.332031 -3.851562 0.144531 -3.875 L 0.144531 -4.09375 L 1.828125 -4.09375 L 1.828125 -3.457031 C 1.976562 -3.648438 2.117188 -3.800781 2.257812 -3.90625 C 2.515625 -4.101562 2.800781 -4.199219 3.117188 -4.199219 C 3.472656 -4.199219 3.75 -4.113281 3.945312 -3.945312 C 4.054688 -3.851562 4.160156 -3.695312 4.257812 -3.476562 L 4.320312 -3.476562 C 4.488281 -3.683594 4.648438 -3.835938 4.800781 -3.941406 C 5.042969 -4.113281 5.308594 -4.199219 5.59375 -4.199219 C 5.90625 -4.199219 6.183594 -4.097656 6.421875 -3.898438 C 6.660156 -3.699219 6.78125 -3.382812 6.78125 -2.953125 L 6.78125 -0.714844 C 6.78125 -0.511719 6.8125 -0.378906 6.878906 -0.324219 C 6.945312 -0.265625 7.0625 -0.230469 7.230469 -0.210938 L 7.230469 0 L 5.121094 0 L 5.121094 -0.210938 C 5.285156 -0.234375 5.398438 -0.277344 5.460938 -0.332031 C 5.523438 -0.386719 5.554688 -0.515625 5.554688 -0.714844 L 5.554688 -2.871094 C 5.554688 -3.101562 5.523438 -3.28125 5.453125 -3.40625 C 5.386719 -3.535156 5.257812 -3.597656 5.066406 -3.597656 C 4.914062 -3.597656 4.75 -3.527344 4.582031 -3.386719 C 4.414062 -3.246094 4.328125 -3.148438 4.328125 -3.09375 L 4.328125 -0.714844 C 4.328125 -0.523438 4.355469 -0.398438 4.414062 -0.34375 C 4.472656 -0.289062 4.582031 -0.246094 4.738281 -0.210938 L 4.738281 0 L 2.660156 0 L 2.660156 -0.210938 C 2.816406 -0.230469 2.929688 -0.269531 2.996094 -0.328125 C 3.0625 -0.382812 3.09375 -0.511719 3.09375 -0.714844 L 3.09375 -2.871094 C 3.09375 -3.09375 3.0625 -3.273438 3 -3.402344 C 2.9375 -3.53125 2.804688 -3.597656 2.605469 -3.597656 C 2.421875 -3.597656 2.253906 -3.523438 2.097656 -3.375 C 1.941406 -3.226562 1.863281 -3.132812 1.863281 -3.09375 L 1.863281 -0.714844 C 1.863281 -0.523438 1.890625 -0.398438 1.945312 -0.34375 C 2 -0.289062 2.109375 -0.246094 2.269531 -0.210938 L 2.269531 0 L 0.144531 0 Z "/>
</g>
</g>
<image id="source-53" x="0" y="0" width="0" height="0"/>
<mask id="mask-0">
<use xlink:href="#source-53"/>
</mask>
</defs>
<g fill="rgb(33.72549%, 76.862745%, 16.470588%)" fill-opacity="1">
<use xlink:href="#glyph-0-0" x="30" y="26.666992"/>
<use xlink:href="#glyph-0-1" x="34" y="26.666992"/>
<use xlink:href="#glyph-0-2" x="36" y="26.666992"/>
<use xlink:href="#glyph-0-3" x="40" y="26.666992"/>
</g>
</svg>
