<?xml version="1.0" encoding="UTF-8"?>
<svg xmlns="http://www.w3.org/2000/svg" xmlns:xlink="http://www.w3.org/1999/xlink" width="1280" height="720" viewBox="0 0 1280 720">
<defs>
<g>
<g id="glyph-0-0">
<path d="M 2.183594 -1.308594 L 1.652344 -2.597656 L 1.605469 -2.597656 L 1.105469 -1.308594 Z M 0.101562 -0.140625 C 0.234375 -0.148438 0.34375 -0.210938 0.421875 -0.324219 C 0.476562 -0.394531 0.550781 -0.550781 0.648438 -0.789062 L 1.882812 -3.832031 L 2.039062 -3.832031 L 3.277344 -0.910156 C 3.417969 -0.582031 3.519531 -0.371094 3.589844 -0.277344 C 3.65625 -0.183594 3.753906 -0.136719 3.882812 -0.140625 L 3.882812 0 L 2.082031 0 L 2.082031 -0.140625 C 2.265625 -0.148438 2.382812 -0.164062 2.441406 -0.1875 C 2.496094 -0.210938 2.527344 -0.269531 2.527344 -0.367188 C 2.527344 -0.410156 2.511719 -0.476562 2.480469 -0.5625 C 2.464844 -0.617188 2.441406 -0.679688 2.410156 -0.753906 L 2.269531 -1.089844 L 1.019531 -1.089844 C 0.9375 -0.871094 0.886719 -0.726562 0.863281 -0.660156 C 0.8125 -0.515625 0.789062 -0.414062 0.789062 -0.347656 C 0.789062 -0.269531 0.84375 -0.210938 0.949219 -0.171875 C 1.011719 -0.152344 1.109375 -0.144531 1.234375 -0.140625 L 1.234375 0 L 0.101562 0 Z "/>
</g>
<g id="glyph-0-1">
<rect x="0" y="0" width="0" height="0" mask="url(#mask-0)"/>
</g>
<g id="glyph-0-2">
<path d="M 1.398438 -0.234375 C 1.519531 -0.234375 1.625 -0.289062 1.722656 -0.394531 C 1.816406 -0.503906 1.863281 -0.578125 1.863281 -0.621094 L 1.863281 -1.972656 C 1.863281 -2.015625 1.824219 -2.085938 1.742188 -2.171875 C 1.660156 -2.261719 1.550781 -2.304688 1.417969 -2.304688 C 1.222656 -2.304688 1.085938 -2.167969 1.015625 -1.894531 C 0.980469 -1.75 0.960938 -1.542969 0.960938 -1.273438 C 0.960938 -0.988281 0.976562 -0.773438 1.015625 -0.628906 C 1.082031 -0.367188 1.210938 -0.234375 1.398438 -0.234375 Z M 0.140625 -1.203125 C 0.140625 -1.640625 0.246094 -1.988281 0.453125 -2.242188 C 0.664062 -2.496094 0.914062 -2.625 1.207031 -2.625 C 1.355469 -2.625 1.484375 -2.585938 1.597656 -2.515625 C 1.667969 -2.472656 1.757812 -2.394531 1.863281 -2.28125 L 1.863281 -3.296875 C 1.863281 -3.4375 1.835938 -3.523438 1.78125 -3.558594 C 1.726562 -3.589844 1.617188 -3.613281 1.445312 -3.617188 L 1.445312 -3.753906 L 2.640625 -3.753906 L 2.640625 -0.558594 C 2.640625 -0.441406 2.664062 -0.363281 2.707031 -0.320312 C 2.75 -0.273438 2.835938 -0.246094 2.960938 -0.234375 L 2.960938 -0.109375 C 2.652344 -0.078125 2.449219 -0.0546875 2.359375 -0.0390625 C 2.269531 -0.0234375 2.109375 0.015625 1.882812 0.078125 L 1.882812 -0.289062 C 1.777344 -0.179688 1.683594 -0.0976562 1.59375 -0.046875 C 1.457031 0.0351562 1.308594 0.078125 1.148438 0.078125 C 0.878906 0.078125 0.644531 -0.0351562 0.441406 -0.265625 C 0.242188 -0.496094 0.140625 -0.808594 0.140625 -1.203125 Z "/>
</g>
</g>
<image id="source-30" x="0" y="0" width="0" height="0"/>
<mask id="mask-0">
<use xlink:href="#source-30"/>
</mask>
</defs>
<g fill="rgb(17.647059%, 12.54902%, 7.45098%)" fill-opacity="1">
<use xlink:href="#glyph-0-0" x="30" y="24.166992"/>
<use xlink:href="#glyph-0-1" x="34" y="24.166992"/>
<use xlink:href="#glyph-0-1" x="35" y="24.166992"/>
<use xlink:href="#glyph-0-0" x="36" y="24.166992"/>
<use xlink:href="#glyph-0-2" x="40" y="24.166992"/>
<use xlink:href="#glyph-0-2" x="43" y="24.166992"/>
</g>
</svg>
