<?xml version="1.0" encoding="UTF-8"?>
<svg xmlns="http://www.w3.org/2000/svg" xmlns:xlink="http://www.w3.org/1999/xlink" width="854" height="480" viewBox="0 0 854 480">
<defs>
<g>
<g id="glyph-0-0">
<path d="M 0.132812 -0.210938 C 0.359375 -0.21875 0.519531 -0.25 0.617188 -0.300781 C 0.785156 -0.386719 0.867188 -0.554688 0.867188 -0.796875 L 0.867188 -4.828125 C 0.867188 -5.074219 0.789062 -5.238281 0.632812 -5.320312 C 0.542969 -5.371094 0.375 -5.40625 0.132812 -5.417969 L 0.132812 -5.632812 L 2.710938 -5.632812 C 3.207031 -5.632812 3.617188 -5.574219 3.945312 -5.460938 C 4.566406 -5.246094 4.875 -4.855469 4.875 -4.289062 C 4.875 -3.945312 4.75 -3.671875 4.5 -3.46875 C 4.246094 -3.265625 3.976562 -3.136719 3.683594 -3.085938 L 3.683594 -3.007812 C 3.992188 -2.949219 4.261719 -2.847656 4.488281 -2.707031 C 4.933594 -2.429688 5.15625 -2.042969 5.15625 -1.550781 C 5.15625 -1.089844 4.941406 -0.714844 4.515625 -0.429688 C 4.089844 -0.144531 3.523438 0 2.816406 0 L 0.132812 0 Z M 2.195312 -3.105469 C 2.710938 -3.105469 3.058594 -3.1875 3.234375 -3.355469 C 3.410156 -3.523438 3.5 -3.824219 3.5 -4.25 C 3.5 -4.570312 3.441406 -4.835938 3.328125 -5.054688 C 3.210938 -5.269531 2.988281 -5.378906 2.660156 -5.378906 C 2.488281 -5.378906 2.367188 -5.351562 2.300781 -5.292969 C 2.230469 -5.234375 2.195312 -5.128906 2.195312 -4.976562 Z M 2.195312 -0.769531 C 2.199219 -0.621094 2.222656 -0.515625 2.261719 -0.449219 C 2.328125 -0.328125 2.460938 -0.269531 2.652344 -0.269531 C 3.046875 -0.269531 3.320312 -0.375 3.480469 -0.589844 C 3.640625 -0.804688 3.71875 -1.109375 3.71875 -1.503906 C 3.71875 -2.097656 3.542969 -2.488281 3.195312 -2.683594 C 2.984375 -2.804688 2.648438 -2.859375 2.195312 -2.851562 Z "/>
</g>
<g id="glyph-0-1">
<path d="M 0.5 -5.109375 C 0.5 -5.289062 0.5625 -5.441406 0.691406 -5.566406 C 0.816406 -5.695312 0.96875 -5.757812 1.148438 -5.757812 C 1.324219 -5.757812 1.476562 -5.695312 1.601562 -5.566406 C 1.726562 -5.441406 1.789062 -5.289062 1.789062 -5.109375 C 1.789062 -4.929688 1.726562 -4.777344 1.601562 -4.652344 C 1.476562 -4.527344 1.324219 -4.464844 1.148438 -4.464844 C 0.96875 -4.464844 0.816406 -4.527344 0.691406 -4.652344 C 0.5625 -4.777344 0.5 -4.929688 0.5 -5.109375 Z M 0.132812 -0.199219 C 0.28125 -0.222656 0.382812 -0.261719 0.433594 -0.308594 C 0.515625 -0.382812 0.558594 -0.515625 0.558594 -0.703125 L 0.558594 -3.152344 C 0.558594 -3.320312 0.527344 -3.4375 0.472656 -3.496094 C 0.414062 -3.558594 0.300781 -3.605469 0.132812 -3.632812 L 0.132812 -3.835938 L 1.734375 -3.835938 L 1.734375 -0.671875 C 1.734375 -0.488281 1.761719 -0.371094 1.816406 -0.320312 C 1.871094 -0.269531 1.96875 -0.230469 2.121094 -0.199219 L 2.121094 0 L 0.132812 0 Z "/>
</g>
<g id="glyph-0-2">
<path d="M 1.40625 -2.59375 C 1.40625 -2.273438 1.433594 -2.035156 1.488281 -1.878906 C 1.570312 -1.636719 1.726562 -1.511719 1.957031 -1.511719 C 2.164062 -1.511719 2.308594 -1.605469 2.386719 -1.789062 C 2.464844 -1.972656 2.507812 -2.238281 2.507812 -2.59375 C 2.507812 -2.96875 2.464844 -3.238281 2.382812 -3.410156 C 2.300781 -3.582031 2.15625 -3.667969 1.957031 -3.667969 C 1.738281 -3.667969 1.589844 -3.574219 1.519531 -3.390625 C 1.445312 -3.207031 1.40625 -2.941406 1.40625 -2.59375 Z M 0.921875 0.90625 C 0.921875 1.078125 1.015625 1.210938 1.199219 1.308594 C 1.382812 1.40625 1.648438 1.457031 1.992188 1.457031 C 2.300781 1.457031 2.558594 1.433594 2.757812 1.382812 C 3.136719 1.289062 3.324219 1.121094 3.324219 0.875 C 3.324219 0.730469 3.269531 0.625 3.164062 0.550781 C 3.054688 0.480469 2.863281 0.445312 2.578125 0.445312 L 1.210938 0.445312 C 1.125 0.515625 1.0625 0.574219 1.023438 0.621094 C 0.957031 0.710938 0.921875 0.808594 0.921875 0.90625 Z M 0.191406 0.964844 C 0.191406 0.84375 0.242188 0.722656 0.339844 0.597656 C 0.4375 0.46875 0.609375 0.386719 0.855469 0.351562 L 0.855469 0.292969 C 0.691406 0.230469 0.574219 0.167969 0.5 0.101562 C 0.371094 -0.015625 0.304688 -0.171875 0.304688 -0.367188 C 0.304688 -0.601562 0.40625 -0.800781 0.613281 -0.964844 C 0.816406 -1.128906 1.015625 -1.246094 1.210938 -1.308594 L 1.210938 -1.367188 C 0.929688 -1.480469 0.703125 -1.644531 0.527344 -1.855469 C 0.355469 -2.066406 0.269531 -2.324219 0.269531 -2.625 C 0.269531 -3.003906 0.421875 -3.316406 0.722656 -3.5625 C 1.027344 -3.8125 1.4375 -3.933594 1.957031 -3.933594 C 2.152344 -3.933594 2.332031 -3.914062 2.496094 -3.878906 C 2.65625 -3.839844 2.78125 -3.800781 2.871094 -3.757812 L 3.972656 -3.757812 L 3.972656 -3.316406 L 3.296875 -3.316406 C 3.40625 -3.210938 3.488281 -3.085938 3.546875 -2.945312 C 3.605469 -2.804688 3.632812 -2.652344 3.632812 -2.484375 C 3.632812 -1.964844 3.386719 -1.609375 2.890625 -1.414062 C 2.628906 -1.3125 2.304688 -1.261719 1.917969 -1.261719 C 1.832031 -1.261719 1.777344 -1.261719 1.75 -1.265625 C 1.726562 -1.269531 1.6875 -1.269531 1.636719 -1.269531 C 1.554688 -1.257812 1.46875 -1.210938 1.378906 -1.140625 C 1.285156 -1.0625 1.242188 -0.972656 1.242188 -0.867188 C 1.242188 -0.78125 1.265625 -0.71875 1.308594 -0.671875 C 1.355469 -0.625 1.421875 -0.597656 1.5 -0.585938 C 1.542969 -0.582031 1.628906 -0.574219 1.761719 -0.570312 C 1.894531 -0.566406 1.996094 -0.566406 2.070312 -0.566406 L 2.613281 -0.558594 C 2.917969 -0.550781 3.175781 -0.507812 3.386719 -0.421875 C 3.785156 -0.261719 3.984375 0.03125 3.984375 0.453125 C 3.984375 0.996094 3.683594 1.367188 3.089844 1.570312 C 2.773438 1.675781 2.378906 1.730469 1.898438 1.730469 C 1.507812 1.730469 1.171875 1.691406 0.890625 1.617188 C 0.425781 1.488281 0.191406 1.269531 0.191406 0.964844 Z "/>
</g>
<g id="glyph-0-3">
<path d="M 0.1875 -1.914062 C 0.1875 -2.554688 0.355469 -3.050781 0.699219 -3.402344 C 1.039062 -3.757812 1.449219 -3.933594 1.929688 -3.933594 C 2.203125 -3.933594 2.460938 -3.863281 2.703125 -3.71875 C 2.945312 -3.574219 3.128906 -3.375 3.257812 -3.121094 C 3.355469 -2.929688 3.425781 -2.679688 3.460938 -2.371094 C 3.480469 -2.226562 3.492188 -2.117188 3.492188 -2.042969 L 1.367188 -2.042969 C 1.386719 -1.710938 1.441406 -1.421875 1.53125 -1.175781 C 1.691406 -0.71875 1.980469 -0.488281 2.386719 -0.488281 C 2.582031 -0.488281 2.769531 -0.550781 2.941406 -0.671875 C 3.046875 -0.746094 3.179688 -0.867188 3.335938 -1.042969 L 3.527344 -0.921875 C 3.269531 -0.5 2.972656 -0.207031 2.632812 -0.0390625 C 2.414062 0.0664062 2.160156 0.117188 1.875 0.117188 C 1.464844 0.117188 1.082031 -0.0429688 0.722656 -0.367188 C 0.367188 -0.6875 0.1875 -1.203125 0.1875 -1.914062 Z M 2.464844 -2.351562 C 2.460938 -2.84375 2.421875 -3.1875 2.351562 -3.382812 C 2.28125 -3.578125 2.140625 -3.675781 1.929688 -3.675781 C 1.710938 -3.675781 1.5625 -3.5625 1.484375 -3.335938 C 1.402344 -3.109375 1.359375 -2.78125 1.347656 -2.351562 Z "/>
</g>
<g id="glyph-0-4">
<path d="M 0.152344 -0.199219 C 0.3125 -0.21875 0.421875 -0.257812 0.484375 -0.3125 C 0.546875 -0.371094 0.582031 -0.480469 0.585938 -0.644531 L 0.59375 -0.886719 L 0.59375 -3.152344 C 0.59375 -3.328125 0.5625 -3.445312 0.503906 -3.507812 C 0.445312 -3.570312 0.328125 -3.613281 0.152344 -3.632812 L 0.152344 -3.835938 L 1.734375 -3.835938 L 1.734375 -3.183594 C 1.910156 -3.414062 2.085938 -3.59375 2.257812 -3.730469 C 2.433594 -3.867188 2.632812 -3.933594 2.859375 -3.933594 C 3.03125 -3.933594 3.183594 -3.878906 3.320312 -3.769531 C 3.457031 -3.660156 3.527344 -3.5 3.527344 -3.289062 C 3.527344 -3.125 3.480469 -2.992188 3.382812 -2.886719 C 3.285156 -2.78125 3.160156 -2.726562 3.007812 -2.726562 C 2.832031 -2.726562 2.679688 -2.808594 2.550781 -2.972656 C 2.421875 -3.140625 2.332031 -3.222656 2.277344 -3.222656 C 2.167969 -3.222656 2.054688 -3.152344 1.941406 -3.015625 C 1.828125 -2.878906 1.773438 -2.683594 1.773438 -2.429688 L 1.773438 -0.855469 C 1.773438 -0.578125 1.8125 -0.40625 1.894531 -0.335938 C 1.972656 -0.265625 2.132812 -0.222656 2.371094 -0.199219 L 2.371094 0 L 0.152344 0 Z "/>
</g>
<g id="glyph-0-5">
<path d="M 0.664062 -0.585938 C 0.664062 -0.78125 0.730469 -0.949219 0.867188 -1.085938 C 1.003906 -1.222656 1.171875 -1.289062 1.367188 -1.289062 C 1.5625 -1.289062 1.730469 -1.222656 1.867188 -1.085938 C 2.003906 -0.949219 2.070312 -0.78125 2.070312 -0.585938 C 2.070312 -0.390625 2.003906 -0.222656 1.867188 -0.0859375 C 1.730469 0.0507812 1.5625 0.117188 1.367188 0.117188 C 1.171875 0.117188 1.003906 0.0507812 0.867188 -0.0859375 C 0.730469 -0.222656 0.664062 -0.390625 0.664062 -0.585938 Z M 0.664062 -4.90625 C 0.664062 -5.214844 0.734375 -5.433594 0.871094 -5.5625 C 1.011719 -5.691406 1.175781 -5.757812 1.367188 -5.757812 C 1.550781 -5.757812 1.714844 -5.695312 1.859375 -5.566406 C 2 -5.4375 2.070312 -5.226562 2.070312 -4.933594 C 2.070312 -4.84375 2.046875 -4.703125 2.003906 -4.519531 C 1.960938 -4.332031 1.878906 -4.027344 1.761719 -3.605469 C 1.691406 -3.351562 1.644531 -3.136719 1.617188 -2.96875 C 1.589844 -2.800781 1.550781 -2.457031 1.492188 -1.945312 L 1.253906 -1.945312 C 1.175781 -2.589844 1.121094 -2.988281 1.09375 -3.140625 C 1.066406 -3.292969 1.011719 -3.507812 0.933594 -3.78125 C 0.828125 -4.128906 0.761719 -4.363281 0.730469 -4.480469 C 0.6875 -4.660156 0.664062 -4.804688 0.664062 -4.90625 Z "/>
</g>
</g>
</defs>
<g fill="rgb(33.72549%, 76.862745%, 16.470588%)" fill-opacity="1">
<use xlink:href="#glyph-0-0" x="30" y="26.25"/>
<use xlink:href="#glyph-0-1" x="36" y="26.25"/>
<use xlink:href="#glyph-0-2" x="38" y="26.25"/>
<use xlink:href="#glyph-0-2" x="42" y="26.25"/>
<use xlink:href="#glyph-0-3" x="46" y="26.25"/>
<use xlink:href="#glyph-0-4" x="50" y="26.25"/>
<use xlink:href="#glyph-0-5" x="54" y="26.25"/>
</g>
</svg>
