<?xml version="1.0" encoding="UTF-8"?>
<svg xmlns="http://www.w3.org/2000/svg" xmlns:xlink="http://www.w3.org/1999/xlink" width="1280" height="720" viewBox="0 0 1280 720">
<defs>
<g>
<g id="glyph-0-0">
<path d="M 3.015625 -0.105469 C 3.597656 -0.105469 3.996094 -0.453125 4.214844 -1.144531 C 4.332031 -1.519531 4.390625 -2.007812 4.390625 -2.609375 C 4.390625 -3.4375 4.265625 -4.0625 4.019531 -4.480469 C 3.773438 -4.902344 3.4375 -5.113281 3.015625 -5.113281 C 2.429688 -5.113281 2.023438 -4.761719 1.808594 -4.058594 C 1.695312 -3.6875 1.636719 -3.203125 1.636719 -2.609375 C 1.636719 -2.003906 1.695312 -1.515625 1.8125 -1.144531 C 2.027344 -0.453125 2.429688 -0.105469 3.015625 -0.105469 Z M 3.015625 -5.375 C 3.800781 -5.375 4.453125 -5.121094 4.972656 -4.613281 C 5.503906 -4.09375 5.773438 -3.425781 5.773438 -2.609375 C 5.773438 -1.792969 5.503906 -1.121094 4.972656 -0.605469 C 4.449219 -0.0976562 3.796875 0.15625 3.015625 0.15625 C 2.183594 0.15625 1.507812 -0.121094 0.984375 -0.675781 C 0.496094 -1.199219 0.25 -1.828125 0.25 -2.566406 C 0.25 -3.382812 0.507812 -4.050781 1.019531 -4.574219 C 1.535156 -5.105469 2.199219 -5.375 3.015625 -5.375 Z "/>
</g>
<g id="glyph-0-1">
<path d="M 0.125 -0.1875 C 0.265625 -0.203125 0.371094 -0.242188 0.4375 -0.300781 C 0.503906 -0.359375 0.539062 -0.480469 0.539062 -0.65625 L 0.539062 -2.941406 C 0.539062 -3.097656 0.511719 -3.207031 0.457031 -3.269531 C 0.402344 -3.332031 0.292969 -3.371094 0.125 -3.390625 L 0.125 -3.582031 L 1.597656 -3.582031 L 1.597656 -3.023438 C 1.722656 -3.210938 1.878906 -3.367188 2.070312 -3.488281 C 2.261719 -3.609375 2.476562 -3.671875 2.707031 -3.671875 C 3.042969 -3.671875 3.300781 -3.585938 3.484375 -3.414062 C 3.667969 -3.242188 3.757812 -2.9375 3.757812 -2.507812 L 3.757812 -0.625 C 3.757812 -0.453125 3.789062 -0.339844 3.847656 -0.289062 C 3.90625 -0.238281 4.007812 -0.203125 4.148438 -0.1875 L 4.148438 0 L 2.320312 0 L 2.320312 -0.1875 C 2.460938 -0.214844 2.554688 -0.25 2.605469 -0.300781 C 2.65625 -0.347656 2.679688 -0.457031 2.679688 -0.625 L 2.679688 -2.511719 C 2.679688 -2.6875 2.664062 -2.820312 2.628906 -2.910156 C 2.566406 -3.070312 2.445312 -3.148438 2.265625 -3.148438 C 2.132812 -3.148438 2.007812 -3.097656 1.898438 -3 C 1.785156 -2.902344 1.699219 -2.804688 1.636719 -2.707031 L 1.636719 -0.625 C 1.636719 -0.457031 1.660156 -0.347656 1.710938 -0.300781 C 1.761719 -0.253906 1.859375 -0.214844 1.996094 -0.1875 L 1.996094 0 L 0.125 0 Z "/>
</g>
<g id="glyph-0-2">
<path d="M 0.175781 -1.785156 C 0.175781 -2.382812 0.332031 -2.847656 0.652344 -3.175781 C 0.96875 -3.507812 1.351562 -3.671875 1.800781 -3.671875 C 2.054688 -3.671875 2.296875 -3.605469 2.523438 -3.472656 C 2.746094 -3.335938 2.921875 -3.152344 3.042969 -2.914062 C 3.132812 -2.734375 3.195312 -2.5 3.230469 -2.214844 C 3.25 -2.078125 3.257812 -1.976562 3.257812 -1.90625 L 1.277344 -1.90625 C 1.292969 -1.59375 1.34375 -1.324219 1.429688 -1.097656 C 1.582031 -0.667969 1.847656 -0.457031 2.230469 -0.457031 C 2.410156 -0.457031 2.582031 -0.511719 2.746094 -0.625 C 2.84375 -0.695312 2.96875 -0.808594 3.113281 -0.972656 L 3.292969 -0.863281 C 3.050781 -0.46875 2.773438 -0.191406 2.457031 -0.0390625 C 2.25 0.0585938 2.015625 0.109375 1.75 0.109375 C 1.367188 0.109375 1.011719 -0.0390625 0.675781 -0.339844 C 0.339844 -0.640625 0.175781 -1.125 0.175781 -1.785156 Z M 2.300781 -2.195312 C 2.296875 -2.652344 2.261719 -2.972656 2.195312 -3.15625 C 2.128906 -3.339844 1.996094 -3.429688 1.800781 -3.429688 C 1.597656 -3.429688 1.457031 -3.324219 1.382812 -3.113281 C 1.308594 -2.902344 1.265625 -2.597656 1.257812 -2.195312 Z "/>
</g>
<g id="glyph-0-3">
<path d="M 0.199219 -1.175781 L 0.414062 -1.175781 C 0.488281 -0.804688 0.632812 -0.542969 0.839844 -0.390625 C 1.046875 -0.238281 1.257812 -0.160156 1.476562 -0.160156 C 1.675781 -0.160156 1.824219 -0.203125 1.917969 -0.292969 C 2.011719 -0.382812 2.058594 -0.503906 2.058594 -0.648438 C 2.058594 -0.789062 2.007812 -0.90625 1.90625 -1.007812 C 1.851562 -1.058594 1.761719 -1.117188 1.636719 -1.175781 L 1.058594 -1.457031 C 0.753906 -1.605469 0.539062 -1.769531 0.40625 -1.945312 C 0.273438 -2.121094 0.203125 -2.324219 0.203125 -2.5625 C 0.203125 -2.863281 0.308594 -3.125 0.519531 -3.34375 C 0.730469 -3.5625 1.023438 -3.671875 1.402344 -3.671875 C 1.566406 -3.671875 1.742188 -3.644531 1.925781 -3.589844 C 2.109375 -3.535156 2.226562 -3.507812 2.269531 -3.507812 C 2.332031 -3.507812 2.378906 -3.523438 2.40625 -3.546875 C 2.433594 -3.574219 2.453125 -3.613281 2.472656 -3.660156 L 2.644531 -3.660156 L 2.644531 -2.535156 L 2.445312 -2.535156 C 2.371094 -2.800781 2.25 -3.011719 2.085938 -3.171875 C 1.917969 -3.332031 1.722656 -3.410156 1.5 -3.410156 C 1.328125 -3.410156 1.199219 -3.363281 1.113281 -3.265625 C 1.03125 -3.167969 0.988281 -3.066406 0.988281 -2.953125 C 0.988281 -2.863281 1.023438 -2.773438 1.101562 -2.679688 C 1.175781 -2.585938 1.3125 -2.492188 1.519531 -2.390625 L 1.945312 -2.1875 C 2.207031 -2.0625 2.398438 -1.9375 2.523438 -1.820312 C 2.726562 -1.617188 2.824219 -1.367188 2.824219 -1.070312 C 2.824219 -0.78125 2.722656 -0.511719 2.511719 -0.265625 C 2.304688 -0.015625 1.988281 0.109375 1.570312 0.109375 C 1.46875 0.109375 1.363281 0.0976562 1.257812 0.078125 C 1.152344 0.0546875 1.023438 0.0195312 0.871094 -0.0351562 L 0.738281 -0.078125 C 0.6875 -0.0976562 0.660156 -0.109375 0.648438 -0.109375 C 0.636719 -0.113281 0.621094 -0.113281 0.605469 -0.113281 C 0.5625 -0.113281 0.523438 -0.0976562 0.492188 -0.0625 C 0.460938 -0.0273438 0.425781 0.0273438 0.382812 0.109375 L 0.199219 0.109375 Z "/>
</g>
</g>
</defs>
<g fill="rgb(100%, 54.901961%, 25.882353%)" fill-opacity="1">
<use xlink:href="#glyph-0-0" x="30" y="25.833008"/>
<use xlink:href="#glyph-0-1" x="36" y="25.833008"/>
<use xlink:href="#glyph-0-2" x="40" y="25.833008"/>
<use xlink:href="#glyph-0-3" x="43" y="25.833008"/>
</g>
</svg>
