<?xml version="1.0" encoding="UTF-8"?>
<svg xmlns="http://www.w3.org/2000/svg" xmlns:xlink="http://www.w3.org/1999/xlink" width="1280" height="720" viewBox="0 0 1280 720">
<defs>
<g>
<g id="glyph-0-0">
<path d="M 0.160156 -0.226562 C 0.398438 -0.238281 0.566406 -0.269531 0.664062 -0.324219 C 0.828125 -0.417969 0.910156 -0.59375 0.910156 -0.851562 L 0.910156 -5.152344 C 0.910156 -5.402344 0.835938 -5.574219 0.691406 -5.664062 C 0.601562 -5.714844 0.425781 -5.753906 0.160156 -5.78125 L 0.160156 -6.007812 L 3.167969 -6.007812 L 3.167969 -5.78125 C 2.90625 -5.765625 2.726562 -5.734375 2.625 -5.675781 C 2.457031 -5.585938 2.375 -5.410156 2.375 -5.152344 L 2.375 -3.3125 L 4.492188 -3.3125 L 4.492188 -5.152344 C 4.492188 -5.410156 4.414062 -5.582031 4.253906 -5.671875 C 4.15625 -5.726562 3.972656 -5.765625 3.703125 -5.78125 L 3.703125 -6.007812 L 6.726562 -6.007812 L 6.726562 -5.78125 C 6.46875 -5.761719 6.289062 -5.722656 6.195312 -5.667969 C 6.035156 -5.578125 5.957031 -5.40625 5.957031 -5.152344 L 5.957031 -0.851562 C 5.957031 -0.589844 6.042969 -0.414062 6.21875 -0.320312 C 6.320312 -0.265625 6.492188 -0.234375 6.726562 -0.226562 L 6.726562 0 L 3.703125 0 L 3.703125 -0.226562 C 3.957031 -0.234375 4.136719 -0.269531 4.246094 -0.328125 C 4.410156 -0.421875 4.492188 -0.597656 4.492188 -0.851562 L 4.492188 -2.898438 L 2.375 -2.898438 L 2.375 -0.851562 C 2.375 -0.585938 2.464844 -0.410156 2.644531 -0.316406 C 2.746094 -0.265625 2.921875 -0.234375 3.167969 -0.226562 L 3.167969 0 L 0.160156 0 Z "/>
</g>
<g id="glyph-0-1">
<path d="M 1.820312 -4.09375 L 1.820312 -1.078125 C 1.820312 -0.898438 1.839844 -0.765625 1.882812 -0.679688 C 1.957031 -0.535156 2.109375 -0.460938 2.332031 -0.460938 C 2.472656 -0.460938 2.613281 -0.503906 2.746094 -0.59375 C 2.824219 -0.644531 2.925781 -0.726562 3.042969 -0.84375 L 3.042969 -3.363281 C 3.042969 -3.550781 3.007812 -3.679688 2.933594 -3.753906 C 2.859375 -3.828125 2.710938 -3.867188 2.488281 -3.875 L 2.488281 -4.09375 L 4.257812 -4.09375 L 4.257812 -0.894531 C 4.257812 -0.710938 4.292969 -0.582031 4.363281 -0.511719 C 4.433594 -0.441406 4.566406 -0.394531 4.769531 -0.378906 L 4.769531 -0.171875 C 4.21875 -0.121094 3.875 -0.0820312 3.730469 -0.0585938 C 3.585938 -0.0351562 3.359375 0.0273438 3.042969 0.125 L 3.042969 -0.460938 C 2.832031 -0.277344 2.65625 -0.148438 2.515625 -0.0742188 C 2.273438 0.0585938 2.019531 0.125 1.757812 0.125 C 1.472656 0.125 1.203125 0.0351562 0.957031 -0.148438 C 0.710938 -0.332031 0.585938 -0.652344 0.585938 -1.121094 L 0.585938 -3.363281 C 0.585938 -3.550781 0.554688 -3.675781 0.496094 -3.734375 C 0.433594 -3.792969 0.316406 -3.839844 0.144531 -3.875 L 0.144531 -4.09375 Z "/>
</g>
<g id="glyph-0-2">
<path d="M 0.144531 -0.210938 C 0.304688 -0.230469 0.425781 -0.277344 0.5 -0.34375 C 0.578125 -0.414062 0.617188 -0.546875 0.617188 -0.75 L 0.617188 -3.363281 C 0.617188 -3.542969 0.585938 -3.667969 0.523438 -3.738281 C 0.460938 -3.808594 0.335938 -3.851562 0.144531 -3.875 L 0.144531 -4.09375 L 1.828125 -4.09375 L 1.828125 -3.457031 C 1.96875 -3.667969 2.148438 -3.847656 2.367188 -3.988281 C 2.585938 -4.128906 2.828125 -4.199219 3.09375 -4.199219 C 3.476562 -4.199219 3.773438 -4.097656 3.984375 -3.902344 C 4.191406 -3.707031 4.296875 -3.359375 4.296875 -2.863281 L 4.296875 -0.714844 C 4.296875 -0.515625 4.332031 -0.386719 4.398438 -0.328125 C 4.46875 -0.269531 4.582031 -0.234375 4.738281 -0.210938 L 4.738281 0 L 2.652344 0 L 2.652344 -0.210938 C 2.8125 -0.242188 2.917969 -0.289062 2.976562 -0.34375 C 3.035156 -0.398438 3.066406 -0.523438 3.066406 -0.714844 L 3.066406 -2.871094 C 3.066406 -3.074219 3.042969 -3.222656 3.003906 -3.324219 C 2.933594 -3.507812 2.796875 -3.597656 2.589844 -3.597656 C 2.4375 -3.597656 2.296875 -3.542969 2.167969 -3.429688 C 2.039062 -3.320312 1.941406 -3.207031 1.871094 -3.09375 L 1.871094 -0.714844 C 1.871094 -0.523438 1.898438 -0.398438 1.957031 -0.34375 C 2.015625 -0.289062 2.125 -0.246094 2.28125 -0.210938 L 2.28125 0 L 0.144531 0 Z "/>
</g>
<g id="glyph-0-3">
<path d="M 2.238281 -0.378906 C 2.429688 -0.378906 2.601562 -0.464844 2.753906 -0.632812 C 2.90625 -0.804688 2.980469 -0.925781 2.980469 -0.992188 L 2.980469 -3.15625 C 2.980469 -3.226562 2.917969 -3.335938 2.785156 -3.476562 C 2.65625 -3.617188 2.484375 -3.691406 2.269531 -3.691406 C 1.953125 -3.691406 1.742188 -3.472656 1.628906 -3.035156 C 1.566406 -2.800781 1.535156 -2.46875 1.535156 -2.039062 C 1.535156 -1.582031 1.566406 -1.238281 1.625 -1.007812 C 1.730469 -0.585938 1.9375 -0.378906 2.238281 -0.378906 Z M 0.226562 -1.921875 C 0.226562 -2.625 0.394531 -3.179688 0.726562 -3.585938 C 1.0625 -3.992188 1.460938 -4.199219 1.929688 -4.199219 C 2.164062 -4.199219 2.375 -4.140625 2.558594 -4.023438 C 2.671875 -3.953125 2.8125 -3.828125 2.980469 -3.652344 L 2.980469 -5.277344 C 2.980469 -5.5 2.9375 -5.640625 2.851562 -5.691406 C 2.765625 -5.746094 2.585938 -5.777344 2.3125 -5.789062 L 2.3125 -6.007812 L 4.226562 -6.007812 L 4.226562 -0.894531 C 4.226562 -0.710938 4.261719 -0.582031 4.332031 -0.511719 C 4.402344 -0.441406 4.539062 -0.394531 4.738281 -0.378906 L 4.738281 -0.171875 C 4.242188 -0.125 3.921875 -0.0859375 3.777344 -0.0625 C 3.632812 -0.0390625 3.378906 0.0234375 3.011719 0.125 L 3.011719 -0.460938 C 2.84375 -0.285156 2.691406 -0.15625 2.550781 -0.0742188 C 2.332031 0.0585938 2.09375 0.125 1.839844 0.125 C 1.40625 0.125 1.027344 -0.0585938 0.707031 -0.425781 C 0.386719 -0.792969 0.226562 -1.292969 0.226562 -1.921875 Z "/>
</g>
<g id="glyph-0-4">
<path d="M 0.160156 -0.210938 C 0.332031 -0.230469 0.449219 -0.273438 0.515625 -0.335938 C 0.582031 -0.394531 0.621094 -0.511719 0.625 -0.6875 L 0.632812 -0.945312 L 0.632812 -3.363281 C 0.632812 -3.550781 0.601562 -3.675781 0.539062 -3.742188 C 0.476562 -3.808594 0.347656 -3.851562 0.160156 -3.875 L 0.160156 -4.09375 L 1.847656 -4.09375 L 1.847656 -3.394531 C 2.035156 -3.640625 2.222656 -3.835938 2.410156 -3.980469 C 2.59375 -4.125 2.808594 -4.199219 3.050781 -4.199219 C 3.234375 -4.199219 3.398438 -4.140625 3.542969 -4.023438 C 3.691406 -3.90625 3.761719 -3.734375 3.761719 -3.507812 C 3.761719 -3.332031 3.710938 -3.191406 3.609375 -3.078125 C 3.507812 -2.964844 3.371094 -2.910156 3.207031 -2.910156 C 3.019531 -2.910156 2.855469 -2.996094 2.71875 -3.171875 C 2.582031 -3.347656 2.484375 -3.4375 2.429688 -3.4375 C 2.3125 -3.4375 2.191406 -3.363281 2.074219 -3.21875 C 1.953125 -3.074219 1.890625 -2.863281 1.890625 -2.589844 L 1.890625 -0.910156 C 1.890625 -0.617188 1.933594 -0.433594 2.019531 -0.359375 C 2.105469 -0.285156 2.277344 -0.234375 2.53125 -0.210938 L 2.53125 0 L 0.160156 0 Z "/>
</g>
<g id="glyph-0-5">
<path d="M 0.199219 -2.039062 C 0.199219 -2.722656 0.382812 -3.253906 0.746094 -3.632812 C 1.109375 -4.007812 1.546875 -4.199219 2.058594 -4.199219 C 2.351562 -4.199219 2.625 -4.121094 2.882812 -3.96875 C 3.140625 -3.8125 3.339844 -3.601562 3.476562 -3.328125 C 3.582031 -3.125 3.652344 -2.859375 3.695312 -2.53125 C 3.714844 -2.378906 3.722656 -2.261719 3.722656 -2.179688 L 1.457031 -2.179688 C 1.476562 -1.824219 1.535156 -1.515625 1.632812 -1.253906 C 1.804688 -0.765625 2.109375 -0.519531 2.546875 -0.519531 C 2.757812 -0.519531 2.953125 -0.585938 3.136719 -0.714844 C 3.25 -0.792969 3.390625 -0.925781 3.558594 -1.109375 L 3.761719 -0.984375 C 3.488281 -0.535156 3.171875 -0.21875 2.808594 -0.0429688 C 2.574219 0.0703125 2.304688 0.125 2 0.125 C 1.5625 0.125 1.15625 -0.046875 0.773438 -0.390625 C 0.390625 -0.734375 0.199219 -1.285156 0.199219 -2.039062 Z M 2.628906 -2.507812 C 2.625 -3.03125 2.585938 -3.398438 2.507812 -3.605469 C 2.433594 -3.816406 2.28125 -3.917969 2.058594 -3.917969 C 1.828125 -3.917969 1.667969 -3.800781 1.582031 -3.558594 C 1.496094 -3.320312 1.449219 -2.96875 1.4375 -2.507812 Z "/>
</g>
<g id="glyph-0-6">
<path d="M 0.226562 -1.34375 L 0.472656 -1.34375 C 0.558594 -0.917969 0.722656 -0.621094 0.960938 -0.445312 C 1.195312 -0.269531 1.441406 -0.183594 1.6875 -0.183594 C 1.917969 -0.183594 2.085938 -0.234375 2.191406 -0.335938 C 2.300781 -0.4375 2.351562 -0.574219 2.351562 -0.742188 C 2.351562 -0.902344 2.292969 -1.039062 2.179688 -1.148438 C 2.117188 -1.210938 2.011719 -1.277344 1.871094 -1.34375 L 1.210938 -1.667969 C 0.863281 -1.839844 0.613281 -2.023438 0.464844 -2.222656 C 0.3125 -2.421875 0.234375 -2.65625 0.234375 -2.929688 C 0.234375 -3.273438 0.355469 -3.570312 0.59375 -3.820312 C 0.835938 -4.070312 1.171875 -4.199219 1.601562 -4.199219 C 1.789062 -4.199219 1.988281 -4.167969 2.199219 -4.105469 C 2.410156 -4.042969 2.542969 -4.011719 2.597656 -4.011719 C 2.667969 -4.011719 2.71875 -4.027344 2.75 -4.054688 C 2.78125 -4.085938 2.804688 -4.128906 2.824219 -4.183594 L 3.019531 -4.183594 L 3.019531 -2.898438 L 2.796875 -2.898438 C 2.710938 -3.199219 2.574219 -3.441406 2.382812 -3.625 C 2.191406 -3.808594 1.96875 -3.898438 1.714844 -3.898438 C 1.519531 -3.898438 1.371094 -3.84375 1.273438 -3.734375 C 1.175781 -3.625 1.128906 -3.503906 1.128906 -3.378906 C 1.128906 -3.273438 1.171875 -3.167969 1.257812 -3.066406 C 1.34375 -2.957031 1.5 -2.847656 1.734375 -2.734375 L 2.222656 -2.5 C 2.523438 -2.355469 2.742188 -2.214844 2.882812 -2.078125 C 3.113281 -1.847656 3.230469 -1.5625 3.230469 -1.222656 C 3.230469 -0.894531 3.109375 -0.585938 2.871094 -0.300781 C 2.632812 -0.015625 2.273438 0.125 1.796875 0.125 C 1.679688 0.125 1.558594 0.113281 1.4375 0.0898438 C 1.316406 0.0664062 1.171875 0.0234375 0.992188 -0.0390625 L 0.84375 -0.0898438 C 0.789062 -0.109375 0.753906 -0.121094 0.738281 -0.125 C 0.726562 -0.128906 0.710938 -0.128906 0.691406 -0.128906 C 0.640625 -0.128906 0.597656 -0.109375 0.5625 -0.0703125 C 0.527344 -0.03125 0.484375 0.0351562 0.4375 0.125 L 0.226562 0.125 Z "/>
</g>
</g>
</defs>
<g fill="rgb(30.980392%, 76.470588%, 96.862745%)" fill-opacity="1">
<use xlink:href="#glyph-0-0" x="30" y="26.666992"/>
<use xlink:href="#glyph-0-1" x="37" y="26.666992"/>
<use xlink:href="#glyph-0-2" x="42" y="26.666992"/>
<use xlink:href="#glyph-0-3" x="47" y="26.666992"/>
<use xlink:href="#glyph-0-4" x="52" y="26.666992"/>
<use xlink:href="#glyph-0-5" x="56" y="26.666992"/>
<use xlink:href="#glyph-0-3" x="60" y="26.666992"/>
<use xlink:href="#glyph-0-6" x="65" y="26.666992"/>
</g>
</svg>
