<?xml version="1.0" encoding="UTF-8"?>
<svg xmlns="http://www.w3.org/2000/svg" xmlns:xlink="http://www.w3.org/1999/xlink" width="854" height="480" viewBox="0 0 854 480">
<defs>
<g>
<g id="glyph-0-0">
<path d="M 0.496094 -0.816406 C 0.679688 -0.816406 0.871094 -0.71875 1.066406 -0.519531 C 1.261719 -0.320312 1.425781 -0.21875 1.550781 -0.21875 C 1.769531 -0.21875 1.925781 -0.292969 2.019531 -0.441406 C 2.117188 -0.589844 2.164062 -0.757812 2.164062 -0.945312 C 2.164062 -1.292969 2.015625 -1.578125 1.722656 -1.800781 C 1.558594 -1.921875 1.292969 -2.046875 0.929688 -2.179688 L 0.929688 -2.277344 C 1.175781 -2.363281 1.355469 -2.445312 1.457031 -2.523438 C 1.640625 -2.660156 1.730469 -2.847656 1.730469 -3.082031 C 1.730469 -3.285156 1.667969 -3.441406 1.546875 -3.546875 C 1.425781 -3.652344 1.269531 -3.707031 1.078125 -3.707031 C 0.90625 -3.707031 0.746094 -3.640625 0.605469 -3.515625 C 0.527344 -3.445312 0.441406 -3.335938 0.351562 -3.195312 L 0.222656 -3.265625 C 0.320312 -3.46875 0.457031 -3.652344 0.632812 -3.808594 C 0.914062 -4.0625 1.246094 -4.191406 1.625 -4.191406 C 1.882812 -4.191406 2.109375 -4.117188 2.304688 -3.972656 C 2.496094 -3.824219 2.601562 -3.632812 2.621094 -3.394531 C 2.621094 -3.226562 2.585938 -3.074219 2.511719 -2.941406 C 2.4375 -2.808594 2.316406 -2.703125 2.148438 -2.617188 L 2.148438 -2.570312 C 2.394531 -2.472656 2.570312 -2.328125 2.683594 -2.132812 C 2.796875 -1.9375 2.855469 -1.730469 2.855469 -1.511719 C 2.855469 -1.074219 2.6875 -0.703125 2.347656 -0.394531 C 1.996094 -0.0703125 1.550781 0.09375 1.011719 0.09375 C 0.75 0.09375 0.53125 0.0429688 0.355469 -0.0585938 C 0.179688 -0.15625 0.09375 -0.289062 0.09375 -0.449219 C 0.09375 -0.539062 0.125 -0.621094 0.1875 -0.699219 C 0.25 -0.777344 0.351562 -0.816406 0.496094 -0.816406 Z "/>
</g>
<g id="glyph-0-1">
<rect x="0" y="0" width="0" height="0" mask="url(#mask-0)"/>
</g>
<g id="glyph-0-2">
<path d="M 0.0976562 -0.144531 C 0.210938 -0.160156 0.285156 -0.183594 0.328125 -0.21875 C 0.394531 -0.273438 0.429688 -0.371094 0.429688 -0.515625 L 0.429688 -2.3125 C 0.429688 -2.441406 0.40625 -2.527344 0.359375 -2.570312 C 0.316406 -2.617188 0.226562 -2.648438 0.0976562 -2.664062 L 0.0976562 -2.8125 L 1.257812 -2.8125 L 1.257812 -2.375 C 1.359375 -2.507812 1.457031 -2.613281 1.550781 -2.683594 C 1.726562 -2.816406 1.925781 -2.886719 2.140625 -2.886719 C 2.386719 -2.886719 2.578125 -2.828125 2.710938 -2.710938 C 2.789062 -2.644531 2.859375 -2.539062 2.925781 -2.390625 L 2.96875 -2.390625 C 3.085938 -2.53125 3.195312 -2.636719 3.300781 -2.710938 C 3.46875 -2.828125 3.648438 -2.886719 3.847656 -2.886719 C 4.0625 -2.886719 4.25 -2.816406 4.414062 -2.679688 C 4.578125 -2.542969 4.660156 -2.324219 4.660156 -2.027344 L 4.660156 -0.492188 C 4.660156 -0.351562 4.683594 -0.261719 4.730469 -0.222656 C 4.773438 -0.183594 4.855469 -0.15625 4.96875 -0.144531 L 4.96875 0 L 3.519531 0 L 3.519531 -0.144531 C 3.632812 -0.160156 3.710938 -0.191406 3.753906 -0.226562 C 3.796875 -0.265625 3.820312 -0.355469 3.820312 -0.492188 L 3.820312 -1.972656 C 3.820312 -2.132812 3.796875 -2.253906 3.75 -2.34375 C 3.703125 -2.429688 3.613281 -2.472656 3.480469 -2.472656 C 3.375 -2.472656 3.265625 -2.425781 3.148438 -2.328125 C 3.03125 -2.230469 2.976562 -2.164062 2.976562 -2.128906 L 2.976562 -0.492188 C 2.976562 -0.359375 2.996094 -0.273438 3.035156 -0.234375 C 3.074219 -0.199219 3.148438 -0.167969 3.257812 -0.144531 L 3.257812 0 L 1.828125 0 L 1.828125 -0.144531 C 1.9375 -0.160156 2.011719 -0.1875 2.058594 -0.226562 C 2.105469 -0.265625 2.128906 -0.351562 2.128906 -0.492188 L 2.128906 -1.972656 C 2.128906 -2.128906 2.105469 -2.25 2.0625 -2.339844 C 2.019531 -2.429688 1.925781 -2.472656 1.789062 -2.472656 C 1.664062 -2.472656 1.546875 -2.421875 1.441406 -2.320312 C 1.332031 -2.21875 1.28125 -2.152344 1.28125 -2.128906 L 1.28125 -0.492188 C 1.28125 -0.359375 1.300781 -0.273438 1.335938 -0.234375 C 1.375 -0.199219 1.449219 -0.167969 1.558594 -0.144531 L 1.558594 0 L 0.0976562 0 Z "/>
</g>
</g>
<image id="source-135" x="0" y="0" width="0" height="0"/>
<mask id="mask-0">
<use xlink:href="#source-135"/>
</mask>
</defs>
<g fill="rgb(100%, 54.901961%, 25.882353%)" fill-opacity="1">
<use xlink:href="#glyph-0-0" x="30" y="24.583008"/>
<use xlink:href="#glyph-0-1" x="33" y="24.583008"/>
<use xlink:href="#glyph-0-2" x="35" y="24.583008"/>
</g>
</svg>
