<?xml version="1.0" encoding="UTF-8"?>
<svg xmlns="http://www.w3.org/2000/svg" xmlns:xlink="http://www.w3.org/1999/xlink" width="854" height="480" viewBox="0 0 854 480">
<defs>
<g>
<g id="glyph-0-0">
<path d="M 2.175781 -2.816406 C 2.671875 -2.824219 3.003906 -2.878906 3.167969 -2.988281 C 3.433594 -3.15625 3.5625 -3.515625 3.5625 -4.074219 C 3.5625 -4.453125 3.5 -4.757812 3.375 -4.992188 C 3.246094 -5.226562 3 -5.34375 2.640625 -5.34375 C 2.476562 -5.34375 2.355469 -5.324219 2.285156 -5.285156 C 2.214844 -5.246094 2.175781 -5.167969 2.175781 -5.054688 Z M 0.132812 -0.210938 C 0.40625 -0.230469 0.59375 -0.289062 0.6875 -0.382812 C 0.78125 -0.480469 0.824219 -0.675781 0.824219 -0.972656 L 0.824219 -4.65625 C 0.824219 -4.96875 0.777344 -5.167969 0.683594 -5.25 C 0.589844 -5.332031 0.40625 -5.390625 0.132812 -5.417969 L 0.132812 -5.632812 L 2.816406 -5.632812 C 3.527344 -5.632812 4.066406 -5.515625 4.4375 -5.285156 C 4.808594 -5.054688 4.992188 -4.660156 4.992188 -4.097656 C 4.992188 -3.824219 4.917969 -3.566406 4.773438 -3.328125 C 4.628906 -3.085938 4.390625 -2.894531 4.058594 -2.746094 C 3.804688 -2.644531 3.550781 -2.582031 3.300781 -2.558594 C 3.046875 -2.539062 2.671875 -2.527344 2.175781 -2.527344 L 2.175781 -0.972656 C 2.175781 -0.664062 2.226562 -0.464844 2.332031 -0.371094 C 2.433594 -0.277344 2.628906 -0.222656 2.910156 -0.210938 L 2.910156 0 L 0.132812 0 Z "/>
</g>
<g id="glyph-0-1">
<path d="M 0.1875 -1.914062 C 0.1875 -2.554688 0.355469 -3.050781 0.699219 -3.402344 C 1.039062 -3.757812 1.449219 -3.933594 1.929688 -3.933594 C 2.203125 -3.933594 2.460938 -3.863281 2.703125 -3.71875 C 2.945312 -3.574219 3.128906 -3.375 3.257812 -3.121094 C 3.355469 -2.929688 3.425781 -2.679688 3.460938 -2.371094 C 3.480469 -2.226562 3.492188 -2.117188 3.492188 -2.042969 L 1.367188 -2.042969 C 1.386719 -1.710938 1.441406 -1.421875 1.53125 -1.175781 C 1.691406 -0.71875 1.980469 -0.488281 2.386719 -0.488281 C 2.582031 -0.488281 2.769531 -0.550781 2.941406 -0.671875 C 3.046875 -0.746094 3.179688 -0.867188 3.335938 -1.042969 L 3.527344 -0.921875 C 3.269531 -0.5 2.972656 -0.207031 2.632812 -0.0390625 C 2.414062 0.0664062 2.160156 0.117188 1.875 0.117188 C 1.464844 0.117188 1.082031 -0.0429688 0.722656 -0.367188 C 0.367188 -0.6875 0.1875 -1.203125 0.1875 -1.914062 Z M 2.464844 -2.351562 C 2.460938 -2.84375 2.421875 -3.1875 2.351562 -3.382812 C 2.28125 -3.578125 2.140625 -3.675781 1.929688 -3.675781 C 1.710938 -3.675781 1.5625 -3.5625 1.484375 -3.335938 C 1.402344 -3.109375 1.359375 -2.78125 1.347656 -2.351562 Z "/>
</g>
<g id="glyph-0-2">
<path d="M 0.152344 -0.199219 C 0.3125 -0.21875 0.421875 -0.257812 0.484375 -0.3125 C 0.546875 -0.371094 0.582031 -0.480469 0.585938 -0.644531 L 0.59375 -0.886719 L 0.59375 -3.152344 C 0.59375 -3.328125 0.5625 -3.445312 0.503906 -3.507812 C 0.445312 -3.570312 0.328125 -3.613281 0.152344 -3.632812 L 0.152344 -3.835938 L 1.734375 -3.835938 L 1.734375 -3.183594 C 1.910156 -3.414062 2.085938 -3.59375 2.257812 -3.730469 C 2.433594 -3.867188 2.632812 -3.933594 2.859375 -3.933594 C 3.03125 -3.933594 3.183594 -3.878906 3.320312 -3.769531 C 3.457031 -3.660156 3.527344 -3.5 3.527344 -3.289062 C 3.527344 -3.125 3.480469 -2.992188 3.382812 -2.886719 C 3.285156 -2.78125 3.160156 -2.726562 3.007812 -2.726562 C 2.832031 -2.726562 2.679688 -2.808594 2.550781 -2.972656 C 2.421875 -3.140625 2.332031 -3.222656 2.277344 -3.222656 C 2.167969 -3.222656 2.054688 -3.152344 1.941406 -3.015625 C 1.828125 -2.878906 1.773438 -2.683594 1.773438 -2.429688 L 1.773438 -0.855469 C 1.773438 -0.578125 1.8125 -0.40625 1.894531 -0.335938 C 1.972656 -0.265625 2.132812 -0.222656 2.371094 -0.199219 L 2.371094 0 L 0.152344 0 Z "/>
</g>
<g id="glyph-0-3">
<path d="M 0.5 -5.109375 C 0.5 -5.289062 0.5625 -5.441406 0.691406 -5.566406 C 0.816406 -5.695312 0.96875 -5.757812 1.148438 -5.757812 C 1.324219 -5.757812 1.476562 -5.695312 1.601562 -5.566406 C 1.726562 -5.441406 1.789062 -5.289062 1.789062 -5.109375 C 1.789062 -4.929688 1.726562 -4.777344 1.601562 -4.652344 C 1.476562 -4.527344 1.324219 -4.464844 1.148438 -4.464844 C 0.96875 -4.464844 0.816406 -4.527344 0.691406 -4.652344 C 0.5625 -4.777344 0.5 -4.929688 0.5 -5.109375 Z M 0.132812 -0.199219 C 0.28125 -0.222656 0.382812 -0.261719 0.433594 -0.308594 C 0.515625 -0.382812 0.558594 -0.515625 0.558594 -0.703125 L 0.558594 -3.152344 C 0.558594 -3.320312 0.527344 -3.4375 0.472656 -3.496094 C 0.414062 -3.558594 0.300781 -3.605469 0.132812 -3.632812 L 0.132812 -3.835938 L 1.734375 -3.835938 L 1.734375 -0.671875 C 1.734375 -0.488281 1.761719 -0.371094 1.816406 -0.320312 C 1.871094 -0.269531 1.96875 -0.230469 2.121094 -0.199219 L 2.121094 0 L 0.132812 0 Z "/>
</g>
<g id="glyph-0-4">
<path d="M 0.132812 -0.199219 C 0.285156 -0.21875 0.390625 -0.25 0.449219 -0.296875 C 0.539062 -0.371094 0.585938 -0.507812 0.585938 -0.703125 L 0.585938 -3.152344 C 0.585938 -3.328125 0.554688 -3.445312 0.492188 -3.507812 C 0.429688 -3.570312 0.3125 -3.613281 0.132812 -3.632812 L 0.132812 -3.835938 L 1.714844 -3.835938 L 1.714844 -3.238281 C 1.851562 -3.421875 1.984375 -3.5625 2.117188 -3.660156 C 2.359375 -3.84375 2.625 -3.933594 2.921875 -3.933594 C 3.253906 -3.933594 3.515625 -3.855469 3.699219 -3.699219 C 3.800781 -3.609375 3.898438 -3.460938 3.992188 -3.257812 L 4.046875 -3.257812 C 4.207031 -3.453125 4.355469 -3.597656 4.5 -3.695312 C 4.726562 -3.855469 4.976562 -3.933594 5.246094 -3.933594 C 5.539062 -3.933594 5.796875 -3.839844 6.019531 -3.652344 C 6.242188 -3.464844 6.355469 -3.171875 6.355469 -2.765625 L 6.355469 -0.671875 C 6.355469 -0.480469 6.386719 -0.355469 6.449219 -0.304688 C 6.511719 -0.25 6.621094 -0.214844 6.777344 -0.199219 L 6.777344 0 L 4.800781 0 L 4.800781 -0.199219 C 4.953125 -0.222656 5.058594 -0.257812 5.117188 -0.3125 C 5.179688 -0.363281 5.207031 -0.484375 5.207031 -0.671875 L 5.207031 -2.691406 C 5.207031 -2.90625 5.175781 -3.074219 5.113281 -3.195312 C 5.050781 -3.3125 4.925781 -3.375 4.75 -3.375 C 4.605469 -3.375 4.453125 -3.308594 4.292969 -3.175781 C 4.136719 -3.042969 4.058594 -2.953125 4.058594 -2.902344 L 4.058594 -0.671875 C 4.058594 -0.488281 4.082031 -0.371094 4.136719 -0.320312 C 4.191406 -0.269531 4.292969 -0.230469 4.441406 -0.199219 L 4.441406 0 L 2.496094 0 L 2.496094 -0.199219 C 2.640625 -0.21875 2.746094 -0.253906 2.808594 -0.308594 C 2.871094 -0.359375 2.902344 -0.480469 2.902344 -0.671875 L 2.902344 -2.691406 C 2.902344 -2.902344 2.871094 -3.066406 2.8125 -3.191406 C 2.753906 -3.3125 2.628906 -3.375 2.441406 -3.375 C 2.269531 -3.375 2.113281 -3.304688 1.964844 -3.164062 C 1.820312 -3.023438 1.746094 -2.9375 1.746094 -2.902344 L 1.746094 -0.671875 C 1.746094 -0.488281 1.769531 -0.371094 1.824219 -0.320312 C 1.875 -0.269531 1.976562 -0.230469 2.128906 -0.199219 L 2.128906 0 L 0.132812 0 Z "/>
</g>
<g id="glyph-0-5">
<path d="M 0.132812 -3.472656 L 0.132812 -3.703125 C 0.207031 -3.769531 0.296875 -3.851562 0.40625 -3.941406 C 0.550781 -4.074219 0.6875 -4.210938 0.8125 -4.355469 C 1.066406 -4.632812 1.296875 -4.925781 1.5 -5.246094 L 1.714844 -5.246094 L 1.714844 -3.835938 L 2.507812 -3.835938 L 2.507812 -3.472656 L 1.714844 -3.472656 L 1.714844 -0.964844 C 1.714844 -0.847656 1.730469 -0.75 1.765625 -0.671875 C 1.820312 -0.550781 1.910156 -0.488281 2.035156 -0.488281 C 2.144531 -0.488281 2.234375 -0.527344 2.308594 -0.605469 C 2.378906 -0.683594 2.453125 -0.789062 2.527344 -0.921875 L 2.726562 -0.824219 C 2.628906 -0.597656 2.511719 -0.414062 2.375 -0.269531 C 2.136719 -0.015625 1.847656 0.109375 1.5 0.109375 C 1.304688 0.109375 1.136719 0.0742188 0.988281 0 C 0.707031 -0.140625 0.566406 -0.398438 0.566406 -0.769531 L 0.566406 -3.472656 Z "/>
</g>
</g>
</defs>
<g fill="rgb(100%, 43.529412%, 63.921569%)" fill-opacity="1">
<use xlink:href="#glyph-0-0" x="30" y="26.25"/>
<use xlink:href="#glyph-0-1" x="35" y="26.25"/>
<use xlink:href="#glyph-0-2" x="39" y="26.25"/>
<use xlink:href="#glyph-0-3" x="43" y="26.25"/>
<use xlink:href="#glyph-0-4" x="45" y="26.25"/>
<use xlink:href="#glyph-0-1" x="52" y="26.25"/>
<use xlink:href="#glyph-0-5" x="56" y="26.25"/>
<use xlink:href="#glyph-0-1" x="59" y="26.25"/>
<use xlink:href="#glyph-0-2" x="63" y="26.25"/>
</g>
</svg>
